<?xml version="1.0" encoding="UTF-8"?>
<svg xmlns="http://www.w3.org/2000/svg" xmlns:xlink="http://www.w3.org/1999/xlink" width="48px" height="44px" viewBox="0 0 47 44" version="1.1">
<defs>
<filter id="alpha" filterUnits="objectBoundingBox" x="0%" y="0%" width="100%" height="100%">
  <feColorMatrix type="matrix" in="SourceGraphic" values="0 0 0 0 1 0 0 0 0 1 0 0 0 0 1 0 0 0 1 0"/>
</filter>
<mask id="mask0">
  <g filter="url(#alpha)">
<rect x="0" y="0" width="47" height="44" style="fill:rgb(0%,0%,0%);fill-opacity:0.501961;stroke:none;"/>
  </g>
</mask>
<clipPath id="clip1">
  <rect x="0" y="0" width="47" height="44"/>
</clipPath>
<g id="surface5" clip-path="url(#clip1)">
<path style=" stroke:none;fill-rule:nonzero;fill:rgb(0%,70.196078%,49.411765%);fill-opacity:1;" d="M 45.929688 0.296875 L 34.6875 40.515625 C 34.632812 40.699219 34.402344 40.753906 34.269531 40.625 L 26.746094 33.414062 L 32.382812 13.257812 C 32.441406 13.078125 32.269531 12.914062 32.078125 12.96875 L 11.046875 18.371094 L 3.558594 11.195312 C 3.425781 11.070312 3.484375 10.847656 3.671875 10.792969 L 45.625 0.00390625 C 45.8125 -0.03125 45.984375 0.132812 45.929688 0.296875 Z M 45.929688 0.296875 "/>
</g>
<mask id="mask1">
  <g filter="url(#alpha)">
<rect x="0" y="0" width="47" height="44" style="fill:rgb(0%,0%,0%);fill-opacity:0.501961;stroke:none;"/>
  </g>
</mask>
<clipPath id="clip2">
  <rect x="0" y="0" width="47" height="44"/>
</clipPath>
<g id="surface8" clip-path="url(#clip2)">
<path style=" stroke:none;fill-rule:nonzero;fill:rgb(0%,70.196078%,49.411765%);fill-opacity:1;" d="M 26.742188 33.414062 L 23.847656 43.820312 C 23.789062 44.003906 23.5625 44.058594 23.429688 43.929688 L 0.0742188 21.566406 C -0.0625 21.4375 -0.00390625 21.21875 0.1875 21.164062 L 11.046875 18.371094 Z M 26.742188 33.414062 "/>
</g>
</defs>
<g id="surface1">
<use xlink:href="#surface5" mask="url(#mask0)"/>
<use xlink:href="#surface8" mask="url(#mask1)"/>
<path style=" stroke:none;fill-rule:nonzero;fill:rgb(0%,70.196078%,49.411765%);fill-opacity:1;" d="M 32.382812 13.257812 L 26.742188 33.414062 L 11.046875 18.371094 L 32.078125 12.96875 C 32.269531 12.914062 32.4375 13.078125 32.382812 13.257812 Z M 32.382812 13.257812 "/>
</g>
</svg>
